HIERARCHY
ROOT Hips
{
	OFFSET 0.00000 0.00000 0.00000
	CHANNELS 6 Xposition Yposition Zposition Zrotation Yrotation Xrotation 
	JOINT LHipJoint
	{
		OFFSET 0 0 0
		CHANNELS 3 Zrotation Yrotation Xrotation
		JOINT LeftUpLeg
		{
			OFFSET 1.54859 -1.61379 0.86856
			CHANNELS 3 Zrotation Yrotation Xrotation
			JOINT LeftLeg
			{
				OFFSET 2.25087 -6.18423 0.00000
				CHANNELS 3 Zrotation Yrotation Xrotation
				JOINT LeftFoot
				{
					OFFSET 2.40328 -6.60297 0.00000
					CHANNELS 3 Zrotation Yrotation Xrotation
					JOINT LeftToeBase
					{
						OFFSET 0.17435 -0.47901 2.02453
						CHANNELS 3 Zrotation Yrotation Xrotation
						End Site
						{
							OFFSET 0.00000 -0.00000 1.04844
						}
					}
				}
			}
		}
	}
	JOINT RHipJoint
	{
		OFFSET 0 0 0
		CHANNELS 3 Zrotation Yrotation Xrotation
		JOINT RightUpLeg
		{
			OFFSET -1.54669 -1.61379 0.86856
			CHANNELS 3 Zrotation Yrotation Xrotation
			JOINT RightLeg
			{
				OFFSET -2.28132 -6.26789 0.00000
				CHANNELS 3 Zrotation Yrotation Xrotation
				JOINT RightFoot
				{
					OFFSET -2.51636 -6.91365 0.00000
					CHANNELS 3 Zrotation Yrotation Xrotation
					JOINT RightToeBase
					{
						OFFSET -0.15124 -0.41552 2.21090
						CHANNELS 3 Zrotation Yrotation Xrotation
						End Site
						{
							OFFSET -0.00000 -0.00000 1.13399
						}
					}
				}
			}
		}
	}
	JOINT LowerBack
	{
		OFFSET 0 0 0
		CHANNELS 3 Zrotation Yrotation Xrotation
		JOINT Spine
		{
			OFFSET -0.04287 2.26161 -0.25690
			CHANNELS 3 Zrotation Yrotation Xrotation
			JOINT Spine1
			{
				OFFSET 0.02248 2.28395 -0.10140
				CHANNELS 3 Zrotation Yrotation Xrotation
				JOINT Neck
				{
					OFFSET 0 0 0
					CHANNELS 3 Zrotation Yrotation Xrotation
					JOINT Neck1
					{
						OFFSET -0.11644 1.38496 0.11345
						CHANNELS 3 Zrotation Yrotation Xrotation
						JOINT Head
						{
							OFFSET 0.29383 1.36600 0.06642
							CHANNELS 3 Zrotation Yrotation Xrotation
							End Site
							{
								OFFSET 0.11075 1.41395 -0.00294
							}
						}
					}
				}
				JOINT LeftShoulder
				{
					OFFSET 0 0 0
					CHANNELS 3 Zrotation Yrotation Xrotation
					JOINT LeftArm
					{
						OFFSET 3.51628 0.59542 -0.30346
						CHANNELS 3 Zrotation Yrotation Xrotation
						JOINT LeftForeArm
						{
							OFFSET 4.76405 -0.00000 0.00000
							CHANNELS 3 Zrotation Yrotation Xrotation
							JOINT LeftHand
							{
								OFFSET 3.13759 -0.00000 -0.00000
								CHANNELS 3 Zrotation Yrotation Xrotation
								JOINT LeftFingerBase
								{
									OFFSET 0 0 0
									CHANNELS 3 Zrotation Yrotation Xrotation
									JOINT LeftHandIndex1
									{
										OFFSET 0.73226 -0.00000 -0.00000
										CHANNELS 3 Zrotation Yrotation Xrotation
										End Site
										{
											OFFSET 0.59037 -0.00000 -0.00000
										}
									}
								}
								JOINT LThumb
								{
									OFFSET 0 0 0
									CHANNELS 3 Zrotation Yrotation Xrotation
									End Site
									{
										OFFSET 0.59938 -0.00000 0.59938
									}
								}
							}
						}
					}
				}
				JOINT RightShoulder
				{
					OFFSET 0 0 0
					CHANNELS 3 Zrotation Yrotation Xrotation
					JOINT RightArm
					{
						OFFSET -3.30990 0.84213 -0.36430
						CHANNELS 3 Zrotation Yrotation Xrotation
						JOINT RightForeArm
						{
							OFFSET -5.10161 -0.00000 -0.00000
							CHANNELS 3 Zrotation Yrotation Xrotation
							JOINT RightHand
							{
								OFFSET -3.23267 -0.00000 -0.00000
								CHANNELS 3 Zrotation Yrotation Xrotation
								JOINT RightFingerBase
								{
									OFFSET 0 0 0
									CHANNELS 3 Zrotation Yrotation Xrotation
									JOINT RightHandIndex1
									{
										OFFSET -0.70200 -0.00000 -0.00000
										CHANNELS 3 Zrotation Yrotation Xrotation
										End Site
										{
											OFFSET -0.56597 -0.00000 -0.00000
										}
									}
								}
								JOINT RThumb
								{
									OFFSET 0 0 0
									CHANNELS 3 Zrotation Yrotation Xrotation
									End Site
									{
										OFFSET -0.57461 -0.00000 0.57461
									}
								}
							}
						}
					}
				}
			}
		}
	}
}
MOTION
Frames: 5
Frame Time: .0083333
-36.2307 15.0643 2.6507 0 0 0 0 0 0 -21 0 0 0 0 0 0 0 0 0 0 0 0 0 0 21 0 0 0 0 0 0 0 0 0 0 0 0 0 0 0 0 0 0 0 0 0 0 -16 0 0 21 0 0 11 0 0 0 -8 0 0 0 0 0 0 0 0 0 0 0 0 0 0 0 0 0 0 0 0 8 0 0 0 0 0 0 0 0 0 0 0 0 0 0 0 0 0
-36.2307 15.0643 2.6507 7.0110 65.9780 8.9628 0.0000 0.0000 0.0000 -12.2043 22.9132 -8.9207 3.2081 11.0245 32.3625 1.7197 -0.0385 -24.8121 1.9720 -8.8075 -25.1950 0.0000 0.0000 0.0000 1.5757 -2.4540 -38.1867 -10.5286 -17.6966 61.2409 -0.8554 3.7887 -16.6113 -0.0395 1.2823 -3.5259 -11.8942 -0.5425 11.5529 -3.9096 -1.5829 6.4946 2.7171 -0.9069 0.6693 -20.6713 -14.5810 6.0306 40.9524 -16.0550 -25.3069 18.1513 -9.6932 -1.7727 0.0000 -0.0000 0.0000 -73.7511 -0.6901 75.8626 137.9511 -49.2380 -100.0225 -0.0000 0.0000 -21.9294 24.7571 19.3540 8.6892 -7.1250 0.0000 -0.0000 -3.5805 51.0921 -0.5380 0.0000 -0.0000 0.0000 61.7877 -7.1404 71.0076 -140.3583 47.8562 -101.8269 0.0000 -0.0000 -30.2315 -70.5359 45.8009 -63.7586 7.1250 -0.0000 -0.0000 -13.1069 40.9228 -18.6873
-36.1629 15.0616 2.7185 7.0691 65.5227 8.6172 0.0000 0.0000 0.0000 -12.0249 22.9107 -7.3617 3.0240 10.7339 31.3875 1.7218 0.4869 -25.0064 1.8565 -8.5606 -24.4301 0.0000 0.0000 0.0000 0.7239 -1.9892 -37.7151 -10.1725 -17.5057 60.0634 -0.7679 3.0708 -15.8015 -0.0461 1.3855 -3.8103 -12.2943 -0.8688 11.2918 -3.4322 -2.0011 6.6421 3.4664 -1.1661 1.0683 -21.0585 -14.1392 5.0479 39.7626 -15.6643 -24.2358 17.5609 -9.2618 -1.5861 0.0000 -0.0000 0.0000 -74.1716 -4.6157 76.1520 138.7716 -48.7811 -100.6418 -0.0000 0.0000 -22.5142 24.6246 19.2743 8.6035 -7.1250 0.0000 -0.0000 -3.6932 50.9838 -0.5451 0.0000 -0.0000 0.0000 58.8598 -4.9399 68.8854 -142.0416 46.8127 -103.0647 0.0000 -0.0000 -30.6499 -71.8733 46.4029 -65.6755 7.1250 -0.0000 -0.0000 -13.2714 42.3596 -18.9415
-36.0619 15.0542 2.7861 6.5628 64.5134 7.6197 0.0000 0.0000 0.0000 -11.7266 23.2457 -5.5276 2.8551 10.4567 30.4687 1.7618 1.7667 -25.7755 2.0586 -8.9872 -25.7552 0.0000 0.0000 0.0000 0.0257 -1.2201 -37.1116 -9.8005 -17.2961 58.8195 -0.6998 2.3724 -15.1747 -0.1065 2.1045 -5.7946 -12.0975 -1.1620 10.9836 -3.2425 -2.3378 6.6342 3.5775 -1.3497 1.2728 -21.2071 -13.5583 4.1280 38.5715 -15.0924 -22.8439 16.9776 -8.7604 -1.4048 -0.0000 -0.0000 0.0000 -75.8391 -9.4849 76.2918 138.6771 -48.8344 -100.5707 -0.0000 0.0000 -21.6555 25.2808 19.9647 9.1606 -7.1250 0.0000 -0.0000 -3.2057 51.8398 -0.5404 -0.0000 -0.0000 0.0000 56.2313 -2.6784 66.6708 -143.4832 45.8654 -104.1077 0.0000 -0.0000 -31.0797 -71.9110 46.3162 -65.6923 7.1250 -0.0000 -0.0000 -13.3476 42.3301 -19.0522
-36.0040 15.0459 2.8619 7.0635 64.1737 7.8925 0.0000 0.0000 0.0000 -11.7054 23.2566 -4.3123 2.6843 10.1655 29.5144 1.7471 2.7483 -26.0855 2.4368 -9.7221 -28.0815 0.0000 0.0000 0.0000 -0.9859 -0.7787 -36.8928 -9.4399 -17.0826 57.5995 -0.6312 1.3468 -14.6082 -0.1791 2.7262 -7.5172 -12.7917 -1.6073 11.0498 -2.7247 -3.0483 6.3253 4.5703 -1.7231 1.0949 -21.6363 -12.8376 3.3945 37.1320 -14.3516 -21.6109 16.4298 -8.1694 -1.3515 -0.0000 0.0000 0.0000 -76.0104 -13.6188 76.3289 137.6900 -49.3805 -99.8245 -0.0000 0.0000 -20.7209 26.5164 18.7436 9.1085 -7.1250 0.0000 -0.0000 -1.6782 50.7400 -0.2374 -0.0000 0.0000 0.0000 53.3570 0.0658 63.9204 -144.4079 45.2303 -104.7678 0.0000 -0.0000 -31.7994 -71.3271 46.0685 -64.8607 7.1250 -0.0000 -0.0000 -13.2674 41.7137 -18.9305
